<svg id="Vrstva_1" data-name="Vrstva 1" xmlns="http://www.w3.org/2000/svg" xmlns:xlink="http://www.w3.org/1999/xlink" width="50" height="50" viewBox="0 0 50 50"><defs><clipPath id="clip-path"><path d="M37.79,13.33A13.5,13.5,0,0,0,11.5,17.67v5A13.5,13.5,0,0,0,25,36.17h.5v-19S33.19,14.08,37.79,13.33Z" style="fill:none;clip-rule:evenodd"/></clipPath><clipPath id="clip-path-2"><path d="M10.5,18.17a15,15,0,1,1,30,0v3a15,15,0,1,1-30,0Z" style="fill:none;clip-rule:evenodd"/></clipPath><clipPath id="clip-path-3"><path d="M6.5,40.92a6.18,6.18,0,0,1,6.75-6.25l6.75.5,7.5,11-21,2Z" style="fill:none;clip-rule:evenodd"/></clipPath><clipPath id="clip-path-4"><path d="M6.5,41.17a7,7,0,0,1,7-7h23a7,7,0,0,1,7,7v7H6.5Z" style="fill:none;clip-rule:evenodd"/></clipPath></defs><title>icon_user</title><g style="clip-path:url(#clip-path)"><rect x="6.5" y="-0.83" width="36.29" height="42" style="fill:#cfdcee"/></g><g style="clip-path:url(#clip-path-2)"><path d="M10.5,18.17a15,15,0,1,1,30,0v3a15,15,0,1,1-30,0Z" style="fill:none;stroke:#fff;stroke-linecap:round;stroke-linejoin:round;stroke-width:4px"/></g><path d="M11.5,18.17a8.7,8.7,0,0,1,9-1.5c5.5,2,17-3.5,18-3.5" style="fill:none;stroke:#fff;stroke-linecap:round;stroke-linejoin:round;stroke-width:2px"/><g style="clip-path:url(#clip-path-3)"><rect x="1.5" y="29.65" width="31" height="23.52" style="fill:#cfdcee"/></g><g style="clip-path:url(#clip-path-4)"><path d="M6.5,41.17a7,7,0,0,1,7-7h23a7,7,0,0,1,7,7v7H6.5Z" style="fill:none;stroke:#fff;stroke-linecap:round;stroke-linejoin:round;stroke-width:4px"/></g><polygon points="25.5 43.17 19.5 35.17 31.5 35.17 25.5 43.17" style="fill:none;stroke:#fff;stroke-linecap:round;stroke-linejoin:round;stroke-width:2px"/></svg>